 <svg  version="1.0" xmlns="http://www.w3.org/2000/svg"  width="300.000000pt" height="300.000000pt" viewBox="0 0 300.000000 300.000000"  preserveAspectRatio="xMidYMid meet">  <g transform="translate(0.000000,300.000000) scale(0.050000,-0.050000)" fill="#a86e0b" stroke="none"> <path d="M3040 5636 c-38 -10 -133 -22 -210 -25 -378 -15 -595 -343 -662 -1002 l-14 -129 -497 0 -497 0 0 -2090 0 -2090 1840 0 1840 0 0 2090 0 2090 -418 0 -417 0 -23 89 c-12 49 -22 92 -22 97 0 4 54 49 119 100 151 118 226 227 217 317 -16 169 -262 36 -335 -180 -42 -123 -38 -125 -110 91 -147 448 -503 730 -811 642z m246 -105 c161 -57 307 -201 412 -406 l42 -84 -51 19 c-75 29 -142 24 -178 -11 -28 -29 -32 -29 -44 5 -66 194 -233 426 -329 457 -21 6 -38 20 -38 30 0 27 97 22 186 -10z m-499 -36 c-8 -14 -39 -56 -69 -95 -91 -117 -245 -513 -317 -815 -24 -101 -27 -105 -93 -105 -37 0 -68 2 -68 5 0 27 69 352 101 477 84 330 149 439 307 518 94 46 162 53 139 15z m250 -33 c213 -109 345 -353 422 -782 l36 -200 -509 0 -509 0 14 65 c66 312 282 812 389 902 75 63 64 62 157 15z m1223 -405 c0 -51 -26 -88 -140 -200 -153 -150 -188 -167 -168 -82 57 236 308 466 308 282z m-539 -54 c42 -34 130 -279 108 -301 -14 -14 -174 65 -233 114 -154 130 -31 314 125 187z m62 -339 c52 -22 99 -35 105 -29 7 6 12 2 12 -10 0 -12 -20 -26 -45 -31 -43 -9 -44 -9 -4 -23 43 -14 43 -38 -1 -406 -11 -88 -9 -125 7 -125 13 0 23 16 24 35 3 156 75 570 81 463 0 -15 5 -46 9 -68 4 -22 21 -143 38 -270 30 -232 99 -480 133 -480 26 0 23 17 -22 134 -34 91 -111 561 -94 578 3 4 39 -16 79 -45 40 -28 98 -53 130 -56 32 -3 69 -11 82 -19 13 -8 23 -4 23 9 0 18 7 18 29 0 16 -13 48 -18 70 -11 29 9 41 4 41 -19 0 -17 14 -31 30 -31 17 0 30 14 30 30 0 42 26 37 56 -11 14 -22 34 -35 45 -29 23 15 23 20 26 -195 2 -96 -4 -175 -12 -175 -9 0 -6 -20 7 -44 18 -33 18 -46 1 -52 -13 -4 -17 -17 -9 -30 20 -32 21 -775 1 -787 -9 -6 -6 -24 7 -40 18 -21 19 -34 2 -51 -17 -17 -17 -30 0 -50 17 -21 17 -33 0 -50 -17 -17 -17 -30 -1 -50 16 -19 16 -33 0 -53 -13 -15 -16 -33 -8 -42 21 -20 22 -250 1 -263 -9 -6 -10 -21 -1 -34 23 -36 21 -142 -2 -157 -13 -9 -11 -25 7 -47 23 -28 23 -36 0 -50 -23 -14 -23 -22 -1 -49 20 -24 22 -38 5 -55 -17 -17 -17 -30 -1 -50 16 -19 16 -33 0 -53 -13 -15 -16 -33 -8 -42 23 -23 20 -239 -4 -256 -15 -10 -15 -14 0 -15 24 0 28 -168 4 -192 -8 -8 -4 -27 8 -42 17 -21 18 -33 1 -50 -17 -17 -17 -30 0 -50 17 -21 17 -33 0 -50 -17 -17 -17 -30 -1 -50 16 -19 16 -33 0 -53 -13 -15 -16 -33 -8 -42 21 -20 22 -250 1 -263 -9 -6 -10 -21 -2 -34 31 -48 23 -154 -11 -155 -26 -1 -24 -6 7 -19 22 -9 33 -19 25 -21 -43 -11 -57 -14 -80 -17 -17 -2 -16 -9 5 -22 21 -14 0 -19 -75 -20 -70 0 -106 8 -107 25 -1 20 -3 20 -11 0 -15 -36 -787 -36 -787 0 -1 19 -4 20 -16 1 -12 -18 -124 -25 -425 -24 -225 0 -456 0 -514 0 -68 0 -105 8 -105 24 0 15 -8 12 -20 -6 -15 -24 -26 -25 -57 -6 -28 17 -44 17 -60 1 -17 -17 -29 -17 -46 0 -16 16 -32 16 -62 -1 -32 -19 -42 -18 -50 3 -8 23 -12 23 -27 0 -13 -22 -25 -22 -56 -3 -31 19 -41 19 -48 0 -7 -19 -18 -18 -51 1 -24 14 -43 17 -43 7 0 -25 -258 -22 -273 3 -7 11 -19 8 -29 -8 -13 -22 -25 -22 -56 -3 -31 19 -41 19 -48 0 -7 -19 -18 -19 -50 0 -32 19 -43 19 -50 0 -7 -19 -18 -18 -51 1 -26 15 -43 17 -43 5 0 -32 -55 -23 -68 11 -6 17 -21 26 -32 19 -11 -7 -20 -3 -20 9 0 11 13 21 28 21 19 0 25 14 17 42 -8 31 -15 35 -27 15 -13 -21 -17 -19 -18 8 0 19 9 35 20 35 11 0 20 20 20 45 -1 36 -4 39 -20 15 -17 -26 -19 -25 -20 5 0 19 9 35 20 35 11 0 20 20 20 45 -1 36 -5 39 -19 16 -10 -17 -24 -24 -31 -18 -6 7 2 26 19 43 37 38 40 87 6 101 -16 6 -13 10 8 11 23 2 30 14 23 42 -6 22 -19 35 -28 29 -10 -6 -18 -2 -18 10 0 11 9 21 20 21 11 0 20 14 20 31 0 17 -8 27 -17 21 -9 -6 -16 3 -16 19 0 16 7 29 16 29 10 0 17 20 17 45 -1 36 -4 39 -20 15 -17 -26 -19 -25 -20 5 0 19 9 35 20 35 11 0 20 19 20 41 0 23 -9 36 -20 29 -11 -7 -20 -3 -20 9 0 11 13 21 28 21 18 0 25 14 18 40 -6 22 -19 35 -28 29 -10 -6 -18 -2 -18 10 0 11 9 21 20 21 11 0 20 19 20 41 0 27 -9 37 -25 27 -20 -11 -20 -8 0 13 39 42 34 111 -5 79 -26 -22 -29 -20 -18 7 7 18 20 33 30 33 10 0 18 14 18 30 0 17 -9 30 -20 30 -34 0 -22 37 14 44 30 5 29 10 -5 44 -27 27 -31 41 -14 47 14 5 25 26 25 48 0 22 -9 34 -20 27 -11 -7 -20 -3 -20 9 0 11 9 21 20 21 11 0 20 20 20 45 -1 36 -4 39 -20 15 -17 -26 -19 -25 -20 5 0 19 9 35 20 35 11 0 20 19 20 41 0 23 -9 36 -20 29 -11 -7 -20 -3 -20 9 0 11 13 21 28 21 19 0 25 14 17 42 -8 31 -15 35 -27 15 -13 -21 -17 -19 -18 8 0 19 9 35 20 35 11 0 20 19 20 41 0 23 -9 36 -20 29 -11 -7 -20 -3 -20 9 0 11 9 21 20 21 11 0 20 19 20 42 0 36 -5 39 -30 18 -26 -22 -29 -20 -18 7 7 18 20 33 30 33 10 0 18 20 18 45 -1 36 -4 39 -20 15 -17 -26 -19 -25 -20 5 0 19 13 35 28 35 19 0 25 14 17 42 -8 31 -15 35 -27 15 -12 -19 -17 -19 -18 -3 0 13 9 29 20 36 11 7 20 32 20 56 -1 36 -4 38 -20 14 -12 -18 -20 -20 -20 -6 0 13 9 29 20 36 11 7 20 32 20 56 -1 36 -4 38 -20 14 -17 -26 -19 -25 -20 5 0 19 9 35 20 35 11 0 20 19 20 41 0 23 -9 36 -20 29 -11 -7 -20 -3 -20 9 0 11 13 21 28 21 18 0 25 14 18 40 -6 22 -19 35 -28 29 -10 -6 -18 -2 -18 10 0 11 9 21 20 21 11 0 20 19 20 41 0 26 -8 36 -23 27 -15 -9 -18 -5 -7 12 24 40 32 360 9 360 -13 0 -13 13 0 39 28 52 26 86 -4 69 -20 -11 -20 -8 0 13 33 36 33 106 0 87 -20 -11 -20 -8 -1 12 17 18 18 37 4 63 -11 20 -12 37 -3 37 9 0 16 18 16 40 0 22 -8 40 -18 40 -10 0 -9 11 3 25 30 36 31 58 4 75 -17 10 -14 23 9 46 40 40 39 54 -1 54 -30 0 -29 5 2 52 19 29 25 47 13 40 -29 -18 -44 14 -22 49 16 25 19 25 19 -1 1 -24 6 -22 22 5 11 19 15 44 8 55 -7 11 1 20 18 20 20 0 27 -12 20 -35 -9 -26 -2 -23 25 9 26 32 45 40 66 27 19 -12 39 -11 55 3 19 15 26 14 26 -2 0 -12 14 -22 31 -22 17 0 27 8 21 17 -6 9 2 16 18 16 16 0 24 -7 18 -16 -16 -26 21 -20 51 8 22 20 24 19 10 -5 -14 -26 -12 -26 17 -3 22 18 34 20 34 5 0 -12 14 -22 31 -22 17 0 27 7 22 16 -6 9 9 17 33 19 34 3 37 -1 14 -16 -24 -15 -20 -18 16 -19 26 0 42 8 36 17 -6 9 2 16 18 16 16 0 24 -7 18 -16 -6 -9 9 -17 32 -17 23 0 37 9 30 20 -14 23 -8 23 240 24 262 1 275 0 257 -29 -11 -19 -7 -18 17 1 22 17 37 19 45 5 19 -30 56 -26 39 4 -11 20 -8 20 13 0 33 -31 107 -34 88 -4 -7 12 6 10 30 -5 27 -17 47 -19 57 -6 19 27 70 37 54 10 -7 -11 -3 -20 8 -20 11 0 25 9 32 20 7 11 26 20 42 20 17 0 25 -9 18 -20 -14 -23 16 -27 37 -6 22 21 75 25 62 4 -6 -10 3 -18 20 -18 17 0 31 8 31 17 0 9 13 16 29 16 16 0 25 -7 19 -16 -6 -9 4 -17 21 -17 17 0 31 9 31 20 0 12 17 10 43 -5 33 -20 44 -20 51 0 7 19 19 19 50 3 23 -12 47 -14 54 -5 20 29 62 34 192 24 76 -5 100 3 165 59 90 77 84 84 -72 84 l-138 0 -11 85 c-7 47 -18 125 -26 173 l-14 89 78 -61 c43 -34 120 -80 171 -102z"/> <path d="M2680 3681 c-27 -7 -278 -12 -556 -10 -384 2 -509 -3 -520 -22 -8 -13 -31 -28 -52 -32 -21 -4 -41 -25 -44 -46 -3 -22 -19 -49 -34 -61 -24 -17 -29 -114 -29 -550 0 -292 -2 -539 -5 -550 -3 -11 -3 -24 -1 -30 2 -5 5 -298 7 -650 l4 -640 45 -20 c25 -11 45 -31 45 -46 0 -14 8 -21 19 -15 10 7 26 -2 35 -18 15 -26 192 -30 1397 -32 1497 -1 1459 -3 1459 53 0 25 16 40 47 45 30 4 42 16 35 34 -5 15 -4 32 4 37 8 5 15 117 14 250 0 133 7 242 15 242 7 0 5 23 -5 50 -11 28 -11 50 -1 50 20 0 17 38 -6 75 -9 14 -6 25 7 25 12 0 16 11 7 24 -19 31 -22 576 -2 576 7 0 6 21 -4 47 -10 25 -10 59 -1 74 10 15 12 36 6 46 -7 10 -14 213 -16 451 -2 259 -12 449 -25 472 -11 22 -22 49 -23 60 -1 11 -10 20 -21 20 -10 0 -38 21 -61 46 -38 40 -55 44 -137 32 -51 -8 -115 -13 -143 -11 -310 14 -1138 13 -1167 -2 -28 -14 -34 -13 -23 4 10 17 -5 20 -53 11 -37 -7 -90 -4 -117 6 -28 10 -72 12 -100 5z m1730 -1371 l0 -1210 -1405 0 -1405 0 0 1210 0 1210 1405 0 1405 0 0 -1210z"/> <path d="M2952 3216 c-8 -19 -13 -88 -9 -154 l7 -119 -74 -7 -74 -7 -6 141 c-3 77 -13 138 -21 135 -8 -3 -15 -9 -15 -15 0 -5 0 -145 0 -310 0 -314 34 -424 44 -145 l6 155 75 6 75 6 0 -151 c0 -87 8 -151 20 -151 22 0 23 167 2 460 -9 119 -20 177 -30 156z"/> <path d="M3175 3201 c-143 -113 -122 -518 31 -601 164 -88 276 422 126 572 -79 79 -90 81 -157 29z m117 -36 c72 -48 89 -227 38 -399 -72 -243 -200 -159 -200 130 0 229 64 334 162 269z"/> <path d="M2447 3190 c-94 -65 -79 -163 51 -320 95 -115 112 -218 40 -241 -23 -7 -52 -3 -64 9 -43 43 -84 26 -44 -18 73 -81 190 -30 190 82 0 73 -39 152 -106 215 -82 76 -105 153 -66 213 39 59 65 62 116 17 49 -45 72 -17 26 33 -43 48 -86 51 -143 10z"/> <path d="M3525 3207 c-31 -13 -36 -587 -6 -587 11 0 22 69 25 154 6 151 7 154 64 169 69 18 91 48 92 119 0 101 -93 178 -175 145z m98 -60 c75 -67 27 -187 -74 -187 -5 0 -9 50 -9 110 0 117 19 135 83 77z"/> <path d="M2655 2247 c-102 -53 -142 -374 -60 -484 133 -179 267 -43 270 275 2 177 -93 271 -210 209z m137 -69 c74 -82 26 -417 -64 -452 -106 -40 -178 280 -97 435 36 71 105 78 161 17z"/> <path d="M3434 2267 c-40 -66 -143 -567 -116 -567 22 0 33 34 52 155 22 138 120 127 140 -15 13 -95 50 -160 50 -88 0 132 -103 552 -126 515z m44 -252 c1 -23 -12 -35 -39 -35 -36 0 -39 8 -27 75 24 133 55 114 66 -40z"/> <path d="M3677 2270 c-7 -11 -8 -144 -2 -295 l11 -275 107 0 c59 0 107 9 107 20 0 11 -40 20 -90 20 l-90 0 -1 185 c-2 205 -23 376 -42 345z"/> <path d="M2255 2245 c-3 -8 -2 -132 4 -275 l11 -260 105 0 c58 0 103 8 100 19 -3 10 -43 16 -90 13 l-85 -5 0 250 c0 215 -17 316 -45 258z"/> <path d="M3025 2247 c-114 -46 -132 -470 -23 -528 49 -26 162 -17 173 14 5 16 -17 20 -74 13 -78 -11 -82 -9 -113 66 -66 157 -3 394 108 404 35 4 60 15 53 25 -12 20 -81 23 -124 6z"/> </g> </svg> 