<?xml version="1.0" encoding="UTF-8"?>
<svg version="1.1" xmlns="http://www.w3.org/2000/svg" width="1080" height="1080">
<path d="M0 0 C356.4 0 712.8 0 1080 0 C1080 356.4 1080 712.8 1080 1080 C723.6 1080 367.2 1080 0 1080 C0 723.6 0 367.2 0 0 Z " fill="#FEFEFE" transform="translate(0,0)"/>
<path d="M0 0 C3.47973758 2.85927917 6.75644701 5.87676428 10 9 C10.4729248 9.44714355 10.94584961 9.89428711 11.43310547 10.35498047 C39.64107575 37.09426372 58.52394384 74.51861754 67.26782227 112.12060547 C68.83938442 118.76749618 71.04926809 124.82229745 74 131 C74.4125 129.7625 74.825 128.525 75.25 127.25 C75.5284375 126.42371094 75.806875 125.59742188 76.09375 124.74609375 C76.69901369 122.91204042 77.28234719 121.07060718 77.84375 119.22265625 C84.57070137 97.62102362 96.86588718 79.28277091 116.99609375 68.49609375 C122.95255938 65.52947953 128.43567177 65.37017932 135 66 C138.52533301 67.83317316 139.55884776 69.11769551 141.3125 72.625 C143.70475661 84.36880519 140.01704676 93.09497366 134.125 103.25 C122.39390568 120.96215554 105.03465209 134.24905182 88.03955078 146.51708984 C87.36649902 147.0064502 86.69344727 147.49581055 86 148 C85.26064209 148.51723633 84.52128418 149.03447266 83.75952148 149.56738281 C81.80862361 150.83721277 81.80862361 150.83721277 81.65234375 152.9609375 C82.56658354 160.70066617 84.3612161 168.19112511 86.27124023 175.73779297 C86.49239502 176.61709473 86.7135498 177.49639648 86.94140625 178.40234375 C87.14451416 179.19116943 87.34762207 179.97999512 87.55688477 180.79272461 C88 183 88 183 88 187 C137.83 187 187.66 187 239 187 C239 435.16 239 683.32 239 939 C20.54 939 -197.92 939 -423 939 C-423 690.84 -423 442.68 -423 187 C-364.26 187 -305.52 187 -245 187 C-244.67 181.72 -244.34 176.44 -244 171 C-243.65187468 168.33341233 -243.25732102 165.67122651 -242.765625 163.02734375 C-242.64744415 162.37963013 -242.52926331 161.7319165 -242.40750122 161.0645752 C-242.03145403 159.02024539 -241.64153234 156.978915 -241.25 154.9375 C-240.97960168 153.49299078 -240.70958783 152.04840954 -240.43994141 150.60375977 C-237.31928783 134.01236615 -233.80608619 117.51167695 -229.55664062 101.17041016 C-228.93231864 98.73610205 -228.33346864 96.29610472 -227.734375 93.85546875 C-218.79411647 57.93079738 -208.76559226 18.29735118 -175.30859375 -2.3125 C-154.17057039 -14.89262961 -131.9669989 -18.4729484 -107.58203125 -15.34765625 C-103.62792658 -14.91168076 -101.32615398 -15.20183989 -97.8125 -17.25 C-66.28844516 -32.99010527 -26.34076459 -19.82883268 0 0 Z " fill="#C98B45" transform="translate(632,86)"/>
<path d="M0 0 C166.98 0 333.96 0 506 0 C506 143.88 506 287.76 506 436 C339.02 436 172.04 436 0 436 C0 292.12 0 148.24 0 0 Z " fill="#D7D2C8" transform="translate(287,446)"/>
<path d="M0 0 C0.77988281 0.27585937 1.55976562 0.55171875 2.36328125 0.8359375 C3.27722656 1.13242188 4.19117188 1.42890625 5.1328125 1.734375 C18.50717211 6.67745417 28.91366466 15.7466393 38.99609375 25.515625 C40.14635583 26.62644952 41.31526304 27.71792063 42.48828125 28.8046875 C78.49780994 62.88513429 86.19577875 123.84485813 92.296875 170.2265625 C92.46036186 171.46658524 92.46036186 171.46658524 92.62715149 172.73165894 C93.01966577 175.78824747 93.36328125 178.7507431 93.36328125 181.8359375 C33.30328125 181.8359375 -26.75671875 181.8359375 -88.63671875 181.8359375 C-86.39815834 167.28529483 -86.39815834 167.28529483 -84.44921875 161.0859375 C-83.99518719 159.61656606 -83.54350671 158.1464668 -83.09375 156.67578125 C-82.85479004 155.8957373 -82.61583008 155.11569336 -82.36962891 154.31201172 C-81.60465806 151.7276232 -80.90099015 149.13270185 -80.2109375 146.52734375 C-67.99304578 100.63117906 -52.50957652 42.68455749 -17.63671875 8.8359375 C-16.70472656 7.92070313 -15.77273438 7.00546875 -14.8125 6.0625 C-6.39579376 -1.56770789 -6.39579376 -1.56770789 0 0 Z " fill="#FEFEFE" transform="translate(534.63671875,91.1640625)"/>
<path d="M0 0 C0.75716309 0.00563965 1.51432617 0.0112793 2.29443359 0.01708984 C29.37116633 0.58813808 51.98986776 14.38520937 70.52734375 33.33984375 C75.19480935 38.33892325 79.27763631 43.75716432 83.25 49.3125 C83.6610498 49.88452148 84.07209961 50.45654297 84.49560547 51.04589844 C106.25 81.64305935 106.25 81.64305935 106.25 94.3125 C107.24 94.5909375 107.24 94.5909375 108.25 94.875 C124.27787694 102.55502437 134.5503886 121.21737096 140.25 137.3125 C140.6625 136.075 141.075 134.8375 141.5 133.5625 C141.7784375 132.73621094 142.056875 131.90992188 142.34375 131.05859375 C142.94901369 129.22454042 143.53234719 127.38310718 144.09375 125.53515625 C150.82070137 103.93352362 163.11588718 85.59527091 183.24609375 74.80859375 C189.20255938 71.84197953 194.68567177 71.68267932 201.25 72.3125 C204.77533301 74.14567316 205.80884776 75.43019551 207.5625 78.9375 C209.95475661 90.68130519 206.26704676 99.40747366 200.375 109.5625 C188.64390568 127.27465554 171.28465209 140.56155182 154.28955078 152.82958984 C153.61649902 153.3189502 152.94344727 153.80831055 152.25 154.3125 C151.50250488 154.76955322 150.75500977 155.22660645 149.98486328 155.69750977 C148.02394899 157.17757294 148.02394899 157.17757294 147.96386719 159.55688477 C148.90107117 166.97137755 150.58322991 174.03282536 152.5 181.25 C158.25468357 203.98040867 160.6270556 227.2827399 163.22973633 250.5456543 C164.28068163 259.85668701 165.593128 269.09020997 167.25 278.3125 C167.36891602 279.01117188 167.48783203 279.70984375 167.61035156 280.4296875 C169.66481685 292.21957896 173.55122472 303.08156156 177.98461914 314.1875 C178.63611938 315.85232422 178.63611938 315.85232422 179.30078125 317.55078125 C179.69950439 318.54118408 180.09822754 319.53158691 180.5090332 320.55200195 C181.32074356 323.57605766 181.11483006 325.33635729 180.25 328.3125 C179.26 328.3125 178.27 328.3125 177.25 328.3125 C163.40666022 295.48400853 158.25390715 263.16375191 154.43896484 228.00878906 C152.48948752 210.1472787 150.31510437 192.32116225 144.25 175.3125 C143.59 175.6425 142.93 175.9725 142.25 176.3125 C141.70542513 178.83789153 141.70542513 178.83789153 141.44384766 181.94848633 C141.31676422 183.15938431 141.18968079 184.37028229 141.05874634 185.61787415 C140.92717174 186.96009187 140.79561086 188.30231095 140.6640625 189.64453125 C140.52053117 191.03344098 140.37601288 192.42224902 140.2305603 193.81095886 C139.84613571 197.50006941 139.47199169 201.19014306 139.10089111 204.88061523 C137.33860584 222.39014082 135.56537797 239.8907528 133.1484375 257.32421875 C132.98848297 258.51094681 132.82852844 259.69767487 132.66372681 260.92036438 C132.50834442 262.00069443 132.35296204 263.08102448 132.19287109 264.1940918 C132.05883881 265.13907028 131.92480652 266.08404877 131.78671265 267.05766296 C131.25 269.3125 131.25 269.3125 129.25 271.3125 C128.26 271.3125 127.27 271.3125 126.25 271.3125 C126.0943598 264.04401573 126.4781528 257.07369857 127.4921875 249.87890625 C127.68483688 248.44187599 127.68483688 248.44187599 127.88137817 246.97581482 C128.28911478 243.94124182 128.70635892 240.90808615 129.125 237.875 C129.66857337 233.89773636 130.2075768 229.91988448 130.7421875 225.94140625 C130.93879471 224.47971512 130.93879471 224.47971512 131.13937378 222.98849487 C132.20372822 214.94451696 133.05320901 206.88915608 133.8125 198.8112793 C134.49155882 191.63046718 135.37824638 184.47200849 136.25 177.3125 C131.96 177.3125 127.67 177.3125 123.25 177.3125 C122.92 175.9925 122.59 174.6725 122.25 173.3125 C124.19090826 171.37159174 127.72293902 171.91330565 130.3125 171.75 C131.60285156 171.66621094 132.89320313 171.58242187 134.22265625 171.49609375 C135.22167969 171.43550781 136.22070312 171.37492188 137.25 171.3125 C138.24 168.3425 138.24 168.3425 139.25 165.3125 C137.71279297 165.39951172 137.71279297 165.39951172 136.14453125 165.48828125 C134.78389989 165.53519957 133.42321904 165.58069752 132.0625 165.625 C131.38896484 165.66689453 130.71542969 165.70878906 130.02148438 165.75195312 C126.0493858 165.84883358 124.53072732 165.56418656 121.53125 162.875 C120.7784375 162.029375 120.025625 161.18375 119.25 160.3125 C117.16316662 159.3838881 117.16316662 159.3838881 114.9375 159 C96.8102936 154.21117085 77.40474128 142.20303008 67.75390625 126.05859375 C61.04577342 113.80971744 61.04577342 113.80971744 61.34423828 107.23730469 C61.62371112 100.48945334 60.30368071 95.25707547 57.875 89 C57.51776855 88.05431152 57.16053711 87.10862305 56.79248047 86.13427734 C48.41291858 64.43095998 37.98216533 44.54637202 22.25 27.3125 C21.58484375 26.57644531 20.9196875 25.84039062 20.234375 25.08203125 C11.30017104 15.67859389 0.58471525 8.48021893 -10.75 2.3125 C-7.07474299 -0.13767134 -4.25611868 -0.03299317 0 0 Z " fill="#0B0907" transform="translate(565.75,79.6875)"/>
<path d="M0 0 C-1.53610446 3.6398997 -3.7478108 5.94555404 -6.5 8.75 C-30.83847791 34.91254197 -42.5183665 74.62095451 -53.875 107.6875 C-54.14635773 108.47679901 -54.41771545 109.26609802 -54.69729614 110.07931519 C-58.42860335 120.97242353 -61.83799405 131.92891172 -65 143 C-65.48533203 144.68355591 -65.48533203 144.68355591 -65.98046875 146.40112305 C-69.65442712 159.20107422 -73.07389899 172.00811153 -76 185 C-83.92 185 -91.84 185 -100 185 C-98.16267808 168.07729807 -95.60411912 151.62835927 -92 135 C-91.82855469 134.19546387 -91.65710938 133.39092773 -91.48046875 132.56201172 C-90.54448767 128.1722224 -89.56777813 123.79348519 -88.55664062 119.42041016 C-88.16216116 117.70511654 -87.7734125 115.98850036 -87.38867188 114.27099609 C-68.55224537 30.33644185 -68.55224537 30.33644185 -41.96484375 12.76171875 C-28.38472767 4.69237441 -16.09968801 -0.75862404 0 0 Z " fill="#FEFDFD" transform="translate(504,88)"/>
<path d="M0 0 C6.83189889 1.82399828 12.28251585 6.56412034 16.15649414 12.37255859 C20.48927201 19.90328176 20.96243137 27.96995526 20.84765625 36.47265625 C20.83895508 37.55853027 20.83025391 38.6444043 20.82128906 39.76318359 C20.49666031 57.99827247 18.91292112 86.78633444 5.47265625 100.66015625 C1.40030422 103.37505761 -1.74626783 103.52803389 -6.52734375 102.66015625 C-13.8196158 99.12450919 -17.85047433 93.01661768 -20.68359375 85.65625 C-23.27793942 78.10485099 -24.68737381 71.42189931 -24.765625 63.421875 C-24.77369675 62.62344681 -24.78176849 61.82501862 -24.79008484 61.00239563 C-24.80388747 59.31045675 -24.81462664 57.61849048 -24.82250977 55.92651367 C-24.83393395 54.22688407 -24.85423061 52.52728755 -24.8840332 50.82788086 C-25.16044911 35.028936 -23.67611498 19.17881114 -14.52734375 5.66015625 C-9.55984901 1.28938085 -6.58864729 -0.93205254 0 0 Z " fill="#D6D1C7" transform="translate(585.52734375,505.33984375)"/>
<path d="M0 0 C0.75716309 0.00563965 1.51432617 0.0112793 2.29443359 0.01708984 C29.37116633 0.58813808 51.98986776 14.38520937 70.52734375 33.33984375 C75.19480935 38.33892325 79.27763631 43.75716432 83.25 49.3125 C83.6610498 49.88452148 84.07209961 50.45654297 84.49560547 51.04589844 C91.75053214 61.24982108 97.76047192 72.06744295 103.25 83.3125 C103.57500488 83.97636719 103.90000977 84.64023438 104.23486328 85.32421875 C106.37334444 89.94246668 106.37334444 89.94246668 105.25 93.3125 C104.27160156 92.89677734 104.27160156 92.89677734 103.2734375 92.47265625 C102.39945313 92.11042969 101.52546875 91.74820313 100.625 91.375 C99.76648438 91.01535156 98.90796875 90.65570313 98.0234375 90.28515625 C92.80159431 88.45383378 87.75426598 88.1551769 82.25 88.125 C80.4865625 88.10373047 80.4865625 88.10373047 78.6875 88.08203125 C72.10151816 88.5235914 68.59024011 90.38574096 64.25 95.3125 C63.24158862 96.63948315 62.2399297 97.97167303 61.25 99.3125 C61.06002441 98.75602783 60.87004883 98.19955566 60.67431641 97.6262207 C51.75375898 71.73542776 40.84322393 47.68053166 22.25 27.3125 C21.58484375 26.57644531 20.9196875 25.84039062 20.234375 25.08203125 C11.30017104 15.67859389 0.58471525 8.48021893 -10.75 2.3125 C-7.07474299 -0.13767134 -4.25611868 -0.03299317 0 0 Z " fill="#FEFDFC" transform="translate(565.75,79.6875)"/>
<path d="M0 0 C8.50100806 4.07406801 13.82889081 9.41092774 17.0625 18.3203125 C22.37728726 38.30593321 16.85048846 65.90800171 7.9453125 84.2421875 C5.752152 87.52107102 3.54937969 90.44015391 -0.0546875 92.2421875 C-4.57321445 92.99385172 -8.47332687 93.09048328 -12.57421875 90.890625 C-21.82117337 83.92857293 -25.78889704 74.92020594 -27.6484375 63.640625 C-29.80605526 43.96259001 -29.54801898 22.22527496 -18.0546875 5.2421875 C-12.50957486 0.39547297 -7.56417174 -2.7898276 0 0 Z " fill="#D5D0C6" transform="translate(493.0546875,678.7578125)"/>
<path d="M0 0 C17.93333206 10.89498131 29.55555249 28.26320785 35.375 48.25 C36.14624825 52.87748949 36.17254081 57.3222269 36 62 C14.69284206 61.60475761 -8.92214843 51.19058317 -24 36 C-31.47219435 27.9468143 -36.42691838 17.30649457 -36.28125 6.25390625 C-35.83508217 2.67836687 -34.37941025 0.6366438 -32 -2 C-22.47216842 -6.91595565 -9.21759964 -4.50750751 0 0 Z " fill="#FCFCFC" transform="translate(668,176)"/>
<path d="M0 0 C0.72574219 0.73734375 1.45148437 1.4746875 2.19921875 2.234375 C14.65779888 14.53657128 30.90840704 24.84545215 48.0625 29.0625 C51 30 51 30 52.203125 32.01171875 C53.96487688 34.37327092 53.96487688 34.37327092 57.57421875 34.609375 C58.9445155 34.67557291 60.31589455 34.7218251 61.6875 34.75 C62.7403418 34.79447266 62.7403418 34.79447266 63.81445312 34.83984375 C65.54235424 34.91037033 67.2711832 34.95747068 69 35 C68.125 40.875 68.125 40.875 67 42 C64.65012738 42.23527773 62.29443961 42.41386417 59.9375 42.5625 C58.64714844 42.64628906 57.35679687 42.73007813 56.02734375 42.81640625 C55.02832031 42.87699219 54.02929688 42.93757813 53 43 C53 43.99 53 44.98 53 46 C54.32 46.33 55.64 46.66 57 47 C57.50588147 48.91512272 58.00448391 50.83216922 58.5 52.75 C58.7784375 53.81734375 59.056875 54.8846875 59.34375 55.984375 C60 59 60 59 60 63 C43.17 63 26.34 63 9 63 C5.70761358 39.95329508 5.70761358 39.95329508 4.5 29.5625 C3.56919722 21.78763284 2.39787232 14.22507358 0.55078125 6.609375 C0 4 0 4 0 0 Z " fill="#FDFDFC" transform="translate(636,210)"/>
<path d="M0 0 C3.0042891 2.92290881 3.47960896 5.38860451 3.5625 9.5 C3.15522846 24.6986335 -9.2393884 36.5239509 -19 47 C-19.62519531 47.67933594 -20.25039063 48.35867187 -20.89453125 49.05859375 C-26.68005629 55.11207995 -33.29564047 60.03047079 -40 65 C-40.67208496 65.50096191 -41.34416992 66.00192383 -42.03662109 66.51806641 C-44.1045542 68.05807797 -46.1761771 69.59293072 -48.25 71.125 C-48.90621338 71.61073486 -49.56242676 72.09646973 -50.23852539 72.59692383 C-54.8813244 76 -54.8813244 76 -56 76 C-56.34197888 68.86499058 -55.54943618 62.76701502 -53.5 55.9375 C-53.23227783 55.03136963 -52.96455566 54.12523926 -52.6887207 53.19165039 C-48.41522594 39.29700754 -42.47678946 27.09645893 -33 16 C-32.41476562 15.31421875 -31.82953125 14.6284375 -31.2265625 13.921875 C-26.83096769 9.17545807 -21.67487923 6.03518662 -16 3 C-15.37996094 2.65710938 -14.75992188 2.31421875 -14.12109375 1.9609375 C-9.77397515 -0.19749262 -4.76079649 -1.17174642 0 0 Z " fill="#FCFCFC" transform="translate(766,157)"/>
<path d="M0 0 C7.48109417 4.31766006 12.23349908 10.36003984 15.171875 18.4375 C16.72637461 24.4710663 16.46396255 29.9657079 14.80078125 35.93359375 C10.70313731 42.67487894 5.3730634 46.05318272 -2.13671875 48.12109375 C-8.07671875 48.61609375 -8.07671875 48.61609375 -14.13671875 49.12109375 C-14.13671875 66.94109375 -14.13671875 84.76109375 -14.13671875 103.12109375 C-15.45671875 103.12109375 -16.77671875 103.12109375 -18.13671875 103.12109375 C-19.36924823 92.24870058 -19.26489677 81.40349879 -19.234375 70.48046875 C-19.23250641 68.50221798 -19.23108459 66.52396674 -19.23008728 64.54571533 C-19.22629679 59.37716358 -19.21649672 54.2086406 -19.2053833 49.0401001 C-19.19509402 43.75069569 -19.19057366 38.46128656 -19.18554688 33.171875 C-19.17487084 22.82160204 -19.15783684 12.4713503 -19.13671875 2.12109375 C-17.85577441 1.628365 -16.57364343 1.13872037 -15.29101562 0.65039062 C-14.57715698 0.37739136 -13.86329834 0.10439209 -13.12780762 -0.17687988 C-8.66845135 -1.7491782 -4.39080973 -1.80609175 0 0 Z " fill="#070707" transform="translate(650.13671875,502.87890625)"/>
<path d="M0 0 C1.32 0 2.64 0 4 0 C10.99044519 10.48566779 11.37548037 27.21975503 13.56396484 39.53930664 C14.9508325 47.32800336 16.39475473 55.10067106 17.94140625 62.859375 C18.18371727 64.07967659 18.18371727 64.07967659 18.43092346 65.32463074 C19.0654224 68.51613709 19.70046843 71.70742394 20.35122681 74.8956604 C20.80057166 77.097152 21.24077112 79.30031562 21.6796875 81.50390625 C22.06229736 83.38831421 22.06229736 83.38831421 22.45263672 85.31079102 C23.04527044 89.30512118 23.09417813 92.96956633 23 97 C21.02 97.495 21.02 97.495 19 98 C16.64020319 89.15153114 14.87096235 80.27118992 13.3125 71.25 C13.08755859 69.96867188 12.86261719 68.68734375 12.63085938 67.3671875 C12.08339291 64.24546383 11.54114713 61.12282532 11 58 C4.07 58 -2.86 58 -10 58 C-10.33 61.3 -10.66 64.6 -11 68 C-11.42520287 69.84659533 -11.89660023 71.68392202 -12.4375 73.5 C-14.07780107 79.62912496 -14.75618919 85.7341446 -15.35327148 92.03320312 C-15.91003899 97.82007798 -15.91003899 97.82007798 -17 100 C-18.65 99.67 -20.3 99.34 -22 99 C-20.79470255 84.29537113 -18.17868983 70.04505146 -14.47827148 55.77368164 C-12.95527534 49.8805107 -11.51721026 43.97672487 -10.1953125 38.03515625 C-9.96757141 37.01236069 -9.96757141 37.01236069 -9.73522949 35.96890259 C-8.99414087 32.62971577 -8.26140573 29.28896134 -7.53613281 25.94628906 C-3.2404106 6.48082121 -3.2404106 6.48082121 0 0 Z " fill="#0C0B0B" transform="translate(618,672)"/>
<path d="M0 0 C8.57386492 3.81060663 16.09818113 10.20259793 19.62890625 19.078125 C21.74469607 27.29329894 21.94640279 35.45126994 21.87890625 43.890625 C21.86657959 45.75871826 21.86657959 45.75871826 21.85400391 47.66455078 C21.62798554 66.19076564 19.29978412 93.11746079 6.12890625 107.515625 C5.56171875 108.15371094 4.99453125 108.79179688 4.41015625 109.44921875 C1.57018705 112.04629585 -0.69165563 112.98300366 -4.49609375 113.515625 C-12.81056005 112.57689493 -19.29831132 108.32829825 -24.55078125 101.90625 C-31.28654882 91.44123772 -33.72055243 79.34896061 -34.37109375 67.078125 C-34.41492188 66.28809082 -34.45875 65.49805664 -34.50390625 64.68408203 C-35.41155003 45.25672324 -33.95752171 21.56308282 -21.16796875 5.83984375 C-14.56549233 -0.63345378 -8.85070055 -3.44112904 0 0 Z M-18.37109375 10.078125 C-27.31526766 23.36011998 -29.05475381 39.13234605 -28.89257812 54.6965332 C-28.87107205 57.14309348 -28.89254322 59.58672912 -28.91796875 62.03320312 C-28.94163141 75.6236869 -27.60471336 91.6841102 -17.56640625 101.91796875 C-12.88036639 106.04985037 -9.90971739 107.47072837 -3.6171875 107.33984375 C-0.03178354 106.92206624 1.28401122 105.81383587 3.62890625 103.078125 C7.46670263 96.78138123 9.76736152 90.17326979 11.62890625 83.078125 C11.88542969 82.18738281 12.14195312 81.29664063 12.40625 80.37890625 C15.95457468 67.43899586 16.81251749 54.50078133 16.94140625 41.140625 C16.95905029 40.0988208 16.97669434 39.0570166 16.99487305 37.98364258 C16.98580172 27.65470214 15.04862192 18.62716033 7.62890625 11.078125 C2.95048707 7.03406774 -1.86624088 3.99110255 -8.17578125 3.73828125 C-12.66760181 4.43363425 -15.42639418 6.72253712 -18.37109375 10.078125 Z " fill="#0C0C0B" transform="translate(589.37109375,500.921875)"/>
<path d="M0 0 C2.0625 0.4375 2.0625 0.4375 4 1 C4.01213028 2.00880722 4.01213028 2.00880722 4.02450562 3.03799438 C4.12900024 11.56717751 4.24673787 20.09614384 4.375 28.625 C4.38516521 29.30331753 4.39533043 29.98163506 4.40580368 30.68050766 C4.65952809 47.38977963 4.99927629 64.04697411 6.33496094 80.71191406 C7.16082385 91.15069464 7.1958073 101.53518739 7 112 C5.0625 112.5625 5.0625 112.5625 3 113 C0.94642229 110.94642229 1.60132391 106.73109104 1.46484375 103.8984375 C1.42186661 103.0697818 1.37888947 102.2411261 1.33460999 101.38735962 C1.24413473 99.62033491 1.15602971 97.85318755 1.07006836 96.0859375 C0.9404111 93.43453008 0.80190433 90.78370232 0.66210938 88.1328125 C0.14825167 78.07765628 -0.12938089 68.06870845 0 58 C-2.75061792 58.1161372 -5.50014237 58.24279531 -8.25 58.375 C-9.00796875 58.4059375 -9.7659375 58.436875 -10.546875 58.46875 C-17.24761537 58.80378702 -23.25051067 59.87508511 -30 61 C-30 79.15 -30 97.3 -30 116 C-31.65 115.67 -33.3 115.34 -35 115 C-35.74909763 87.33120227 -36.09544975 59.67778587 -36.0625 32 C-36.06164398 31.27578857 -36.06078796 30.55157715 -36.05990601 29.80541992 C-36.0485562 20.87025659 -36.02854032 11.93512594 -36 3 C-32.125 3.875 -32.125 3.875 -31 5 C-30.90673284 6.56547048 -30.88254418 8.13512772 -30.88647461 9.70336914 C-30.88655014 10.70433121 -30.88662567 11.70529327 -30.88670349 12.73658752 C-30.89186478 13.8251152 -30.89702606 14.91364288 -30.90234375 16.03515625 C-30.9037587 17.14354355 -30.90517365 18.25193085 -30.90663147 19.39390564 C-30.91224967 22.95013069 -30.92480525 26.50629383 -30.9375 30.0625 C-30.94251266 32.46679597 -30.94707597 34.87109292 -30.95117188 37.27539062 C-30.96222501 43.18361504 -30.97898083 49.0918031 -31 55 C-30.24686523 54.8570752 -29.49373047 54.71415039 -28.71777344 54.56689453 C-22.14771988 53.3851931 -15.91828913 52.72757184 -9.25 52.875 C-8.445625 52.88402344 -7.64125 52.89304687 -6.8125 52.90234375 C-4.87486386 52.92541085 -2.937386 52.96125228 -1 53 C-1.00222061 52.35076065 -1.00444122 51.7015213 -1.00672913 51.03260803 C-1.02878002 44.30112252 -1.04390577 37.56964719 -1.05493164 30.83813477 C-1.05997363 28.32283105 -1.06680703 25.80753028 -1.07543945 23.29223633 C-1.08751094 19.68570225 -1.09322949 16.07920677 -1.09765625 12.47265625 C-1.10281754 11.34038101 -1.10797882 10.20810577 -1.11329651 9.04151917 C-1.11337204 8.00051559 -1.11344757 6.95951202 -1.11352539 5.88696289 C-1.115746 4.96540909 -1.11796661 4.04385529 -1.12025452 3.09437561 C-1 1 -1 1 0 0 Z " fill="#0B0B0A" transform="translate(533,499)"/>
<path d="M0 0 C10.72956259 6.01114049 14.5555483 13.4010199 18.34375 24.765625 C19.85820824 46.85147429 18.24738917 74.71739576 5.34375 93.765625 C1.05464281 98.29663412 -2.39992886 100.909557 -8.71875 101.140625 C-16.62260658 101.03730661 -21.90451377 97.84171842 -27.40625 92.328125 C-31.82787343 86.92163881 -33.71913235 80.38229652 -35.65625 73.765625 C-36.20732422 72.00025391 -36.20732422 72.00025391 -36.76953125 70.19921875 C-41.59775609 50.25853037 -38.20979325 26.64919504 -28.58203125 8.671875 C-25.8540389 4.55498594 -22.93394291 2.13820107 -18.65625 -0.234375 C-17.7075 -0.894375 -16.75875 -1.554375 -15.78125 -2.234375 C-10.13950828 -4.03973235 -5.25635114 -2.44265729 0 0 Z M-21.65625 7.765625 C-31.22586525 19.60114915 -32.83547579 34.81603901 -32.84375 49.453125 C-32.85599609 50.57396484 -32.86824219 51.69480469 -32.88085938 52.84960938 C-32.90320091 65.68109534 -31.57464165 80.6383217 -22.2109375 90.328125 C-18.15262763 94.08053212 -15.2167479 96.01180925 -9.65625 96.328125 C-5.93990928 96.15514217 -4.60059317 95.73264318 -1.28125 93.765625 C10.95996876 79.7756607 13.54426063 55.2848626 13.78125 37.453125 C13.81472534 35.96800415 13.81472534 35.96800415 13.84887695 34.45288086 C13.82356981 26.25678732 12.12159569 18.11302113 7.15625 11.390625 C3.57036143 8.04379566 -0.27929221 5.92400693 -4.65625 3.765625 C-5.31625 3.435625 -5.97625 3.105625 -6.65625 2.765625 C-13.00131156 2.00421761 -17.00802985 3.58128018 -21.65625 7.765625 Z " fill="#0C0C0B" transform="translate(497.65625,675.234375)"/>
<path d="M0 0 C3.88235179 2.70076646 6.66279358 5.80415462 8.875 10 C8.75 13 8.75 13 7.875 15 C6.885 15 5.895 15 4.875 15 C3.3046875 13.06640625 3.3046875 13.06640625 1.75 10.5625 C0.01355297 7.62419256 0.01355297 7.62419256 -2.125 5 C-8.39371778 4.45011248 -12.96115495 5.2559261 -18.125 9 C-23.46131005 15.70459468 -23.80711214 21.69248497 -23.125 30 C-21.27103341 38.96306151 -15.33296085 44.63780409 -9.125 51 C1.91942169 62.77463139 12.35487168 76.52367129 12.15625 93.33203125 C11.56475356 98.94303225 9.41795836 103.41643747 5.5 107.4375 C-0.7724988 111.17113024 -6.93000354 111.86984286 -14.125 111 C-17.5 109.3125 -17.5 109.3125 -20.125 107 C-21.094375 106.175 -22.06375 105.35 -23.0625 104.5 C-25.125 102 -25.125 102 -24.9375 99.6875 C-24.669375 99.130625 -24.40125 98.57375 -24.125 98 C-20.75165772 98.57807818 -19.2800104 99.61587802 -16.9375 102.0625 C-14.1551433 104.5410019 -12.36902084 105.46044832 -8.625 105.5625 C-4.16151149 105.21212377 -0.94814474 104.37034974 2.875 102 C6.0590058 96.86450678 6.81424061 91.96056538 5.875 86 C2.25340804 72.78789601 -5.58300018 63.52143457 -14.75195312 53.77441406 C-24.32577398 43.52198904 -29.86990127 34.47678711 -29.46875 20.15234375 C-28.76784896 13.7247626 -26.57696638 9.01388907 -21.8125 4.625 C-14.95936694 -0.6242083 -8.36161675 -2.67571736 0 0 Z " fill="#0B0B0B" transform="translate(460.125,503)"/>
<path d="M0 0 C5.26225208 4.38521007 9.63113482 9.65567412 11 16.5 C11.39992945 21.00102415 11.52525101 25.02273152 10 29.3125 C5.40510849 34.33816259 -0.35048668 37.17009734 -7 38.5 C-9.31 38.5 -11.62 38.5 -14 38.5 C-14 25.63 -14 12.76 -14 -0.5 C-4.71428571 -2.35714286 -4.71428571 -2.35714286 0 0 Z " fill="#D5D0C6" transform="translate(650,508.5)"/>
<path d="M0 0 C0 1.32 0 2.64 0 4 C-0.92941406 3.95359375 -1.85882812 3.9071875 -2.81640625 3.859375 C-12.66702096 3.48145257 -12.66702096 3.48145257 -21 8 C-32.16877672 18.91494089 -32.1386064 38.94982664 -32.3996582 53.5090332 C-32.41838989 55.48456177 -32.41838989 55.48456177 -32.4375 57.5 C-32.45965576 58.76352295 -32.48181152 60.0270459 -32.50463867 61.32885742 C-32.48359476 70.44688501 -31.28397238 79.04688517 -25.625 86.5 C-19.79924647 92.04833669 -14.89549424 92.46501012 -7.06640625 92.3046875 C-3.49450393 91.94977236 -1.04366986 90.87302761 2 89 C3.32 89 4.64 89 6 89 C6 90.32 6 91.64 6 93 C-1.5370736 97.76383885 -8.12199057 99.33987136 -17 98 C-24.92712621 95.52481754 -30.28240763 91.00701102 -34.21484375 83.76171875 C-42.65374335 65.89287441 -39.50618356 36.45032437 -34 18 C-30.76061201 9.30732276 -25.53097686 3.34769652 -17.625 -1.4375 C-11.70323168 -2.70645035 -5.45130191 -2.90736102 0 0 Z " fill="#0B0B0A" transform="translate(566,676)"/>
<path d="M0 0 C1.32 0 2.64 0 4 0 C4.03425331 0.83992744 4.03425331 0.83992744 4.06919861 1.69682312 C4.30986137 7.58681791 4.55380729 13.47667054 4.79956055 19.36645508 C4.89055205 21.55717629 4.98073902 23.74793109 5.07006836 25.9387207 C5.59073839 39.88917921 5.59073839 39.88917921 6.5625 53.8125 C7.27898617 62.29668449 7.1061175 70.80544058 7.0625 79.3125 C7.05747105 81.03580598 7.05291063 82.75911339 7.04882812 84.48242188 C7.03880268 88.65501346 7.0192089 92.82740081 7 97 C17.89 96.67 28.78 96.34 40 96 C40 97.32 40 98.64 40 100 C35.96287157 104.03712843 23.98936654 102.18463193 18.8125 102.1875 C17.63751953 102.19974609 16.46253906 102.21199219 15.25195312 102.22460938 C13.5590918 102.22750977 13.5590918 102.22750977 11.83203125 102.23046875 C10.29639526 102.23663208 10.29639526 102.23663208 8.72973633 102.24291992 C5.94396793 101.99501369 4.42498341 101.3054429 2 100 C1.96574669 98.87152901 1.96574669 98.87152901 1.93080139 97.72026062 C1.71366749 90.58625016 1.4933306 83.45234887 1.26950932 76.31854534 C1.1545859 72.65211148 1.04084632 68.9856493 0.92993164 65.3190918 C0.82259367 61.7722783 0.7119901 58.22557956 0.59924126 54.6789341 C0.53669449 52.68573831 0.47742004 50.69244069 0.41822815 48.69914246 C0.20950404 42.22080578 -0.14951102 35.80440673 -0.78730774 29.35438538 C-1.0611325 26.32329712 -1.12946526 23.31608253 -1.1328125 20.2734375 C-1.13410156 19.14035156 -1.13539063 18.00726562 -1.13671875 16.83984375 C-1.13285156 15.69644531 -1.12898437 14.55304687 -1.125 13.375 C-1.12886719 12.19292969 -1.13273438 11.01085937 -1.13671875 9.79296875 C-1.13542969 8.67277344 -1.13414062 7.55257812 -1.1328125 6.3984375 C-1.13168457 5.38442871 -1.13055664 4.37041992 -1.12939453 3.32568359 C-1 1 -1 1 0 0 Z " fill="#0D0D0C" transform="translate(662,672)"/>
<path d="M0 0 C0.99 0.33 1.98 0.66 3 1 C3.05534912 2.2595752 3.11069824 3.51915039 3.16772461 4.81689453 C3.37642162 9.5546108 3.58763828 14.29221215 3.79956055 19.02978516 C3.89040182 21.06816678 3.98058785 23.10657772 4.07006836 25.14501953 C4.65061767 38.76971589 4.65061767 38.76971589 5.5625 52.375 C6.16005037 60.2132124 6.10885544 68.01754754 6.0625 75.875 C6.041875 80.86625 6.02125 85.8575 6 91 C16.56 90.67 27.12 90.34 38 90 C38.33 91.32 38.66 92.64 39 94 C35.28579214 96.36796918 32.0135674 96.2581445 27.6796875 96.265625 C26.62988205 96.26849518 26.62988205 96.26849518 25.55886841 96.27142334 C24.08465209 96.27278057 22.61042363 96.26911645 21.13623047 96.26074219 C18.87570558 96.25000335 16.61596955 96.26066908 14.35546875 96.2734375 C12.92187324 96.27211645 11.48827823 96.2695552 10.0546875 96.265625 C8.74999512 96.26336914 7.44530273 96.26111328 6.10107422 96.25878906 C3 96 3 96 1 94 C0.69029236 91.9622345 0.69029236 91.9622345 0.60522461 89.42114258 C0.56856186 88.46867142 0.53189911 87.51620026 0.49412537 86.53486633 C0.46383743 85.49855576 0.4335495 84.46224518 0.40234375 83.39453125 C0.36315323 82.323134 0.32396271 81.25173676 0.28358459 80.14787292 C0.15921368 76.70299698 0.04786471 73.25785064 -0.0625 69.8125 C-0.21641521 65.31887973 -0.37551051 60.82545109 -0.53515625 56.33203125 C-0.57272537 55.24336258 -0.61029449 54.15469391 -0.64900208 53.03303528 C-0.89555396 46.11739842 -1.29621503 39.23497756 -1.79711914 32.33325195 C-2.15503219 26.45288262 -2.18420787 20.57711536 -2.1875 14.6875 C-2.19974609 13.48416016 -2.21199219 12.28082031 -2.22460938 11.04101562 C-2.22654297 9.89697266 -2.22847656 8.75292969 -2.23046875 7.57421875 C-2.23457764 6.54901123 -2.23868652 5.52380371 -2.24291992 4.4675293 C-2 2 -2 2 0 0 Z " fill="#10100F" transform="translate(408,676)"/>
<path d="M0 0 C14.01808248 11.44333263 25.05390479 27.81838386 28 46 C28.06459042 47.76977761 28.08611065 49.54170152 28.0625 51.3125 C28.05347656 52.19550781 28.04445313 53.07851562 28.03515625 53.98828125 C28.02355469 54.65214844 28.01195312 55.31601563 28 56 C25.9160597 55.88556397 23.83283507 55.75804453 21.75 55.625 C20.58984375 55.55539063 19.4296875 55.48578125 18.234375 55.4140625 C15.29305666 55.03751692 13.50050989 54.5225877 11 53 C11.66 53 12.32 53 13 53 C9.67412642 36.31892502 5.86914658 20.06110291 0.54736328 3.89404297 C0 2 0 2 0 0 Z " fill="#C68945" transform="translate(676,182)"/>
<path d="M0 0 C1.96162688 3.39842114 2.60448132 6.59949017 3.25390625 10.453125 C3.46853516 11.71253906 3.68316406 12.97195313 3.90429688 14.26953125 C4.01249756 14.9238916 4.12069824 15.57825195 4.23217773 16.25244141 C4.55928301 18.23054588 4.89580698 20.20708532 5.23242188 22.18359375 C6.28856764 28.44388979 7.28742987 34.69095213 8 41 C4.38132441 42.2062252 1.07493749 42.10816918 -2.6875 42.0625 C-3.38939453 42.05798828 -4.09128906 42.05347656 -4.81445312 42.04882812 C-6.54300538 42.03706927 -8.27151365 42.01913454 -10 42 C-9.37324662 37.23910682 -8.52498066 32.60710118 -7.44140625 27.9296875 C-7.29219223 27.28556915 -7.14297821 26.64145081 -6.98924255 25.97781372 C-6.67556604 24.62792519 -6.36036768 23.27838946 -6.04370117 21.92919922 C-5.56239071 19.87453345 -5.08855256 17.81823846 -4.61523438 15.76171875 C-4.30774109 14.44260349 -3.99981325 13.12358943 -3.69140625 11.8046875 C-3.41498291 10.61858887 -3.13855957 9.43249023 -2.85375977 8.21044922 C-2.09280074 5.34896474 -1.17044693 2.71538574 0 0 Z " fill="#CDC9BF" transform="translate(620,683)"/>
<path d="M0 0 C4.29 0 8.58 0 13 0 C12 6 12 6 11 7 C8.98035801 7.07244053 6.95832876 7.08377188 4.9375 7.0625 C3.83277344 7.05347656 2.72804688 7.04445312 1.58984375 7.03515625 C0.30787109 7.01775391 0.30787109 7.01775391 -1 7 C-0.67 4.69 -0.34 2.38 0 0 Z " fill="#C18644" transform="translate(692,245)"/>
<path d="M0 0 C3.40858586 3.40858586 3.93008394 8.32201465 4.125 13 C4.08375 13.66 4.0425 14.32 4 15 C3.34 15 2.68 15 2 15 C1.66223316 13.2508503 1.32996329 11.50063855 1 9.75 C0.814375 8.77546875 0.62875 7.8009375 0.4375 6.796875 C0 4 0 4 0 0 Z " fill="#DED5CB" transform="translate(711,258)"/>
</svg>
